<svg enable-background="new 0 0 27 24" height="24" viewBox="0 0 27 24" width="27" xmlns="http://www.w3.org/2000/svg"><path d="m13.21 19.636h1.614s.486-.053.736-.321c.229-.246.223-.709.223-.709s-.032-2.164.972-2.482c.992-.314 2.265 2.092 3.612 3.018 1.02.7 1.795.547 1.795.547l3.605-.051s1.885-.113.991-1.598c-.073-.123-.521-1.1-2.681-3.104-2.262-2.099-1.959-1.76.765-5.389 1.658-2.21 2.322-3.56 2.114-4.138-.196-.551-1.416-.405-1.416-.405l-4.06.025s-.303-.042-.525.092c-.217.131-.357.435-.357.435s-.643 1.71-1.5 3.165c-1.808 3.07-2.529 3.232-2.824 3.042-.688-.445-.517-1.785-.517-2.738 0-2.974.45-4.214-.879-4.536-.44-.106-.767-.177-1.895-.188-1.449-.015-2.674.004-3.369.344-.462.226-.818.73-.601.759.268.037.876.165 1.198.604.417.565.402 1.837.402 1.837s.239 3.501-.559 3.936c-.546.299-1.297-.311-2.908-3.096-.827-1.426-1.45-3.002-1.45-3.002s-.119-.296-.335-.453c-.259-.191-.623-.252-.623-.252l-3.858.025s-.579.016-.792.268c-.189.224-.014.687-.014.687s3.02 7.065 6.44 10.628c3.135 3.266 6.696 3.05 6.696 3.05" fill="#eee"/></svg>